# xmcd
#
# Track frame offsets:
#	150
#	22815
#	34428
#	48395
#	63454
#	79495
#	97599
#	109981
#	117455
#	133391
#	147249
#	157955
#	171812
#
# Disc length: 2355 seconds
#
# Revision: 0
# Processed by: cddbd v1.4PL0 Copyright (c) Steve Scherf et al.
# Submitted via: dBpowerAMP V4.0
#
DISCID=b309310d
DTITLE=Franky J Spencer - When You Hear The Dentist Sing
DYEAR=1900
DGENRE=Comedy
TTITLE0=1.It's Just A Screw On The Wall
TTITLE1=2.Wild Wood Weed
TTITLE2=3.Who Put The Sand In The Vaseline
TTITLE3=4.I've Had Eggs For Breakfast
TTITLE4=5.Help Me Make It Through The Night
TTITLE5=6.When You Hear The Dentist Sing
TTITLE6=7.I Like Mucking Round,Trucking Round
TTITLE7=8.Foot,Foot,Foot
TTITLE8=9.Sweet Mother-in -Law
TTITLE9=10.When You Stoke The Fire
TTITLE10=11.Leprosy
TTITLE11=Cut Your Toenails Betty
TTITLE12=Stop,Revive ,Survive
EXTD=
EXTT0=
EXTT1=
EXTT2=
EXTT3=
EXTT4=
EXTT5=
EXTT6=
EXTT7=
EXTT8=
EXTT9=
EXTT10=
EXTT11=
EXTT12=
PLAYORDER=
